<svg height="800" width="800" xmlns="http://www.w3.org/2000/svg" viewBox="0 0 512 512" xml:space="preserve"><circle style="fill:#ffedb5" cx="256" cy="256" r="256"/><path style="fill:#fee187" d="M512 256c0-4.248-.109-8.471-.314-12.669l-93.284-92.767L92.517 360.296l151.412 151.412c4.001.187 8.023.292 12.071.292 141.384 0 256-114.616 256-256zM316.002 99.145l61.821 62.902-178.424-7.757 1.724-44.822z"/><path style="fill:#606060" d="M295.577 197.818h-79.155c-15.724 0-28.517-12.793-28.517-28.517v-50.71c0-15.724 12.793-28.517 28.517-28.517h79.155c15.724 0 28.517 12.793 28.517 28.517v50.71c0 15.724-12.793 28.517-28.517 28.517zm-79.154-85.333a6.113 6.113 0 0 0-6.106 6.106v50.71a6.113 6.113 0 0 0 6.106 6.106h79.155a6.113 6.113 0 0 0 6.106-6.106v-50.71a6.113 6.113 0 0 0-6.106-6.106h-79.155z"/><path style="fill:#494949" d="M295.577 90.074h-40.726v22.411h40.726a6.113 6.113 0 0 1 6.106 6.106v50.71a6.113 6.113 0 0 1-6.106 6.106h-40.726v22.411h40.726c15.724 0 28.517-12.793 28.517-28.517v-50.71c0-15.724-12.793-28.517-28.517-28.517z"/><path style="fill:#494949" d="M398.365 369.778H113.633c-15.631 0-28.3-12.671-28.3-28.301V170.522c0-15.631 12.671-28.3 28.3-28.3h284.732c15.631 0 28.301 12.671 28.301 28.3v170.955c.001 15.63-12.67 28.301-28.301 28.301z"/><path style="fill:#353535" d="M398.365 142.222H254.85v227.556h143.515c15.631 0 28.301-12.671 28.301-28.301V170.524c.001-15.631-12.67-28.302-28.301-28.302z"/><path style="fill:#333" d="M398.367 256H113.635c-15.631 0-28.301-12.671-28.301-28.301v-57.177c0-15.631 12.671-28.3 28.301-28.3h284.732c15.631 0 28.301 12.671 28.301 28.3v57.177c-.001 15.63-12.672 28.301-28.301 28.301z"/><path style="fill:#1e1e1e" d="M398.365 142.222H254.85V256h143.515c15.631 0 28.301-12.671 28.301-28.301v-57.175c.001-15.631-12.67-28.302-28.301-28.302z"/><path style="fill:#fee187" d="M158.455 284.444h-4.022c-6.744 0-12.212-5.466-12.212-12.21v-32.466c0-6.744 5.467-12.21 12.212-12.21h4.022c6.744 0 12.212 5.467 12.212 12.21v32.466c0 6.744-5.467 12.21-12.212 12.21z"/><path style="fill:#ffc61b" d="M158.455 287.892h-4.022c-8.635 0-15.658-7.025-15.658-15.66v-32.465c0-8.635 7.023-15.66 15.658-15.66h4.022c8.635 0 15.66 7.025 15.66 15.66v32.465c-.001 8.635-7.025 15.66-15.66 15.66zm-4.022-56.889c-4.832 0-8.763 3.931-8.763 8.764v32.465c0 4.834 3.931 8.764 8.763 8.764h4.022c4.834 0 8.764-3.93 8.764-8.764v-32.465c0-4.834-3.931-8.764-8.764-8.764h-4.022z"/><path style="fill:#fee187" d="M357.567 284.444h-4.022c-6.744 0-12.21-5.466-12.21-12.21v-32.466c0-6.744 5.467-12.21 12.21-12.21h4.022c6.744 0 12.21 5.467 12.21 12.21v32.466c.001 6.744-5.466 12.21-12.21 12.21z"/><path style="fill:#ffc61b" d="M357.566 287.892h-4.022c-8.635 0-15.658-7.025-15.658-15.66v-32.465c0-8.635 7.023-15.66 15.658-15.66h4.022c8.635 0 15.66 7.025 15.66 15.66v32.465c0 8.635-7.025 15.66-15.66 15.66zm-4.022-56.889c-4.832 0-8.763 3.931-8.763 8.764v32.465c0 4.834 3.931 8.764 8.763 8.764h4.022c4.834 0 8.764-3.93 8.764-8.764v-32.465c0-4.834-3.931-8.764-8.764-8.764h-4.022z"/><path style="fill:#1e1e1e" d="M426.667 341.476v-28.588c-31.418 0-56.889 25.471-56.889 56.889h28.588c15.63.001 28.301-12.67 28.301-28.301z"/><path style="fill:#333" d="M85.333 312.889v28.588c0 15.631 12.671 28.301 28.301 28.301h28.588c0-31.418-25.47-56.889-56.889-56.889z"/></svg>